<svg xmlns="http://www.w3.org/2000/svg" width="37.969" height="23" viewBox="0 0 37.969 23">
  <defs>
    <style>
      .cls-1 {
        fill: #fff;
        fill-rule: evenodd;
      }
    </style>
  </defs>
  <path id="On_hover_ayes" data-name="On hover ayes" class="cls-1" d="M201,3873c-7.26,0-13.844,4.03-18.7,10.58a1.558,1.558,0,0,0,0,1.83c4.858,6.56,11.442,10.59,18.7,10.59s13.844-4.03,18.7-10.58a1.555,1.555,0,0,0,0-1.83C214.843,3877.03,208.259,3873,201,3873Zm0.521,19.6a8.118,8.118,0,1,1,7.454-7.57A8.062,8.062,0,0,1,201.52,3892.6Zm-0.241-3.74a4.369,4.369,0,1,1,4.019-4.08A4.336,4.336,0,0,1,201.279,3888.86Z" transform="translate(-182.031 -3873)"/>
</svg>
